The Hot Rock (1972) 1080p AC3 (5.1) HDTV

This is my own rip.

There is a small logo for 10 seconds every 30 minutes.

General
Unique ID                        : 183290568036938877703918488224477543121 (0x89E47AB6B8B37F029351C3235E18FAD1)
Format                           : Matroska
Format version                   : Version 2
File size                        : 3.24 GiB
Duration                         : 1h 40mn
Overall bit rate mode            : Variable
Overall bit rate                 : 4 598 Kbps
Encoded date                     : UTC 2012-12-20 17:40:04
Writing application              : mkvmerge v5.8.0 ('No Sleep / Pillow') built on Sep  2 2012 15:37:04
Writing library                  : libebml v1.2.3 + libmatroska v1.3.0

Video
ID                               : 1
Format                           : AVC
Format/Info                      : Advanced Video Codec
Format profile                   : High@L4.1
Format settings, CABAC           : Yes
Format settings, ReFrames        : 4 frames
Codec ID                         : V_MPEG4/ISO/AVC
Duration                         : 1h 40mn
Bit rate mode                    : Variable
Bit rate                         : 4 122 Kbps
Maximum bit rate                 : 15 609 Mbps
Width                            : 1 912 pixels
Height                           : 808 pixels
Display aspect ratio             : 2.35:1
Frame rate                       : 23.976 fps
Color space                      : YUV
Chroma subsampling               : 4:2:0
Bit depth                        : 8 bits
Scan type                        : Progressive
Bits/(Pixel*Frame)               : 0.111
Stream size                      : 2.90 GiB (90%)
Writing library                  : x264 core 129 r2230 1cffe9f
Language                         : English
Default                          : Yes
Forced                           : No

Audio
ID                               : 2
Format                           : AC-3
Format/Info                      : Audio Coding 3
Mode extension                   : CM (complete main)
Codec ID                         : A_AC3
Duration                         : 1h 40mn
Bit rate mode                    : Constant
Bit rate                         : 384 Kbps
Channel(s)                       : 6 channels
Channel positions                : Front: L C R, Side: L R, LFE
Sampling rate                    : 48.0 KHz
Bit depth                        : 16 bits
Compression mode                 : Lossy
Stream size                      : 277 MiB (8%)
Language                         : English
Default                          : Yes
Forced                           : No

Menu
00:00:00.000                     : en:Main Titles
00:02:32.194                     : en:The Career Crook
00:04:33.857                     : en:Kelp
00:07:26.780                     : en:The Sahara Stone
00:08:43.356                     : en:The Money Man
00:12:59.946                     : en:Dortmunder's Decision
00:14:59.357                     : en:Family
00:16:39.790                     : en:Murch and Ma
00:18:11.257                     : en:Meeting of the Minds
00:21:21.864                     : en:Preparations
00:24:16.288                     : en:The Heist
00:34:36.449                     : en:Kelp Under Glass
00:36:21.179                     : en:Greenberg's Big Gulp
00:37:42.302                     : en:Look on the Bright Side
00:39:41.212                     : en:Getting Greenberg Out
00:44:31.836                     : en:The Break-In
00:52:27.186                     : en:The Breakout
00:57:15.432                     : en:Where's the Diamond?
01:00:28.291                     : en:Copter Crooks
01:07:27.627                     : en:Assualt on Ninth Street
01:11:58.147                     : en:Dad's Little Secret
01:18:53.312                     : en:Stymied by a Signature
01:22:51.008                     : en:The Man With the Plan
01:25:26.997                     : en:Afghanistan Banana Stand
01:28:15.874                     : en:Double-Cross
01:30:21.708                     : en:The Hypnotic Heist
01:36:45.883                     : en:The Getaway
01:39:58.034                     : en:End Titles